#!OML:ASF E:\emotionWalksFemale\Project 1\Capture day 1\Session 1\Female1.ASF
:FULLY-SPECIFIED
:DEGREES
391
root 8.30091 15.5957 8.05726 5.00481 -79.109 -4.55647
lowerback 9.10879 1.12969 3.30846
upperback -4.75998 1.90241 -0.411015
thorax -10.106 0.666246 -2.63594
lowerneck -6.69074 -6.9328 -9.90352
upperneck 4.92246 -8.92148 8.15681
head 3.36428 -4.32613 3.58241
rclavicle -1.84497e-015 2.26118e-015
rhumerus -51.3419 8.49004 -84.5835
rradius 36.6823
rwrist 29.0559
rhand 1.17017 -57.5196
rfingers 7.12502
rthumb 26.7107 -85.6544
lclavicle -1.84497e-015 2.26118e-015
lhumerus -53.0821 17.4335 70.3789
lradius 40.9718
lwrist 7.07669
lhand -8.55831 -32.9042
lfingers 7.12502
lthumb 17.3716 -3.66054
rfemur 8.01069 21.1871 31.5503
rtibia 5.95165
rfoot -18.0187 -31.6724
rtoes 6.82116
lfemur -8.11159 -24.9258 -22.5085
ltibia 26.7849
lfoot -23.8941 15.094
ltoes -14.7267
392
root 8.31121 15.5935 8.06291 5.10629 -79.2435 -4.89059
lowerback 9.40533 1.08183 3.50185
upperback -4.62327 1.86487 -0.533099
thorax -10.1248 0.632509 -2.87663
lowerneck -6.82264 -6.87829 -9.66546
upperneck 4.77612 -8.86077 8.26817
head 3.33117 -4.28521 3.58132
rclavicle -1.85739e-015 -3.52843e-015
rhumerus -51.3139 8.99958 -85.4913
rradius 37.5436
rwrist 28.3738
rhand 0.894578 -57.552
rfingers 7.12502
rthumb 26.4469 -85.7268
lclavicle -1.85739e-015 -3.52843e-015
lhumerus -52.6391 16.3229 71.9325
lradius 41.1674
lwrist 4.78136
lhand -8.37062 -33.3421
lfingers 7.12502
lthumb 17.5522 -4.1144
rfemur 8.19017 21.0165 31.6395
rtibia 5.93061
rfoot -16.9923 -31.8269
rtoes 4.43846
lfemur -7.77907 -25.2414 -22.7217
ltibia 26.7483
lfoot -23.4342 15.9827
ltoes -16.9527
393
root 8.31974 15.5824 8.06625 4.82447 -79.3542 -4.74388
lowerback 9.59738 1.04948 3.53193
upperback -4.51561 1.82304 -0.640685
thorax -10.1187 0.608419 -3.00619
lowerneck -6.99031 -6.82495 -9.38391
upperneck 4.67057 -8.79568 8.25836
head 3.30821 -4.24488 3.5351
rclavicle -2.02388e-014 -5.96354e-016
rhumerus -51.2869 9.63366 -86.4135
rradius 38.3564
rwrist 27.5888
rhand 0.505161 -57.6268
rfingers 7.12502
rthumb 26.0741 -85.8572
lclavicle -2.02388e-014 -5.96354e-016
lhumerus -52.2378 15.2518 73.4398
lradius 41.4255
lwrist 2.65063
lhand -7.94469 -34.1154
lfingers 7.12502
lthumb 17.9621 -4.92481
rfemur 8.03822 20.8315 31.6146
rtibia 6.42264
rfoot -16.8151 -31.7838
rtoes 3.81373
lfemur -7.62848 -24.9688 -23.0087
ltibia 26.5987
lfoot -21.3831 18.1842
ltoes -29.8041
394
root 8.32849 15.5779 8.06922 4.25836 -79.56 -4.22632
lowerback 9.70772 1.02814 3.3537
upperback -4.43277 1.76826 -0.696837
thorax -10.099 0.593849 -2.95834
lowerneck -7.08019 -6.73298 -9.00812
upperneck 4.47022 -8.6818 8.14173
head 3.23092 -4.18474 3.44891
rclavicle 4.7758e-014 6.4605e-015
rhumerus -51.2252 10.523 -87.333
rradius 39.0812
rwrist 26.7071
rhand 0.0868083 -57.5334
rfingers 7.12502
rthumb 25.6735 -85.8222
lclavicle 4.7758e-014 6.4605e-015
lhumerus -51.8774 14.4555 74.8377
lradius 41.7293
lwrist 0.406449
lhand -7.68983 -34.7993
lfingers 7.12502
lthumb 18.2073 -5.63146
rfemur 7.46581 20.7521 31.4644
rtibia 7.461
rfoot -16.7006 -31.8303
rtoes 2.69603
lfemur -7.46656 -24.863 -23.2761
ltibia 26.3191
lfoot -20.3573 19.3771
ltoes -34.5343
395
root 8.34028 15.5794 8.07574 3.4646 -79.8886 -3.43862
lowerback 9.79559 1.01121 3.10258
upperback -4.38557 1.7116 -0.714587
thorax -10.1082 0.583184 -2.82756
lowerneck -7.06743 -6.58976 -8.79362
upperneck 4.31717 -8.50018 8.09919
head 3.15632 -4.09367 3.41766
rclavicle 1.06598e-014 6.4605e-015
rhumerus -51.102 11.4253 -88.1323
rradius 39.6536
rwrist 25.9327
rhand -0.195742 -57.4653
rfingers 7.12502
rthumb 25.4029 -85.7928
lclavicle 1.06598e-014 6.4605e-015
lhumerus -51.6065 13.6632 76.1985
lradius 42.0183
lwrist -1.99095
lhand -7.15309 -35.1241
lfingers 7.12502
lthumb 18.7236 -6.00521
rfemur 6.8637 20.8116 31.145
rtibia 8.31091
rfoot -16.0643 -31.9629
rtoes 0.492896
lfemur -7.32174 -24.7819 -23.5442
ltibia 26.0504
lfoot -20.4254 19.7018
ltoes -33.6665
396
root 8.35163 15.5848 8.07814 3.06819 -80.1681 -3.06321
lowerback 9.91667 0.994057 2.85722
upperback -4.36826 1.66168 -0.674594
thorax -10.1711 0.575876 -2.64059
lowerneck -7.01191 -6.45797 -8.80025
upperneck 4.21886 -8.32873 8.19308
head 3.10786 -4.00742 3.46207
rclavicle 1.68594e-014 9.83984e-015
rhumerus -50.8742 12.0319 -88.7286
rradius 40.0214
rwrist 25.3779
rhand -0.104876 -57.1783
rfingers 7.12502
rthumb 25.4899 -85.4935
lclavicle 1.68594e-014 9.83984e-015
lhumerus -51.3372 12.7784 77.5275
lradius 42.26
lwrist -4.30862
lhand -6.47378 -35.5084
lfingers 7.12502
lthumb 19.3769 -6.45386
rfemur 6.40117 20.8263 30.9222
rtibia 8.96284
rfoot -15.7706 -31.8396
rtoes -0.100097
lfemur -7.21414 -24.5331 -23.6593
ltibia 25.8216
lfoot -19.8101 19.9674
ltoes -35.1212
397
root 8.35978 15.5979 8.07226 3.57113 -80.3351 -3.61949
lowerback 10.005 0.99804 2.6904
upperback -4.31392 1.6503 -0.629542
thorax -10.1691 0.584253 -2.49759
lowerneck -7.02018 -6.38223 -8.83594
upperneck 4.1249 -8.23438 8.40894
head 3.08423 -3.95458 3.54072
rclavicle -1.12686e-014 5.76476e-015
rhumerus -50.5075 12.2973 -89.3001
rradius 40.3211
rwrist 24.8985
rhand 0.417568 -56.0806
rfingers 7.12502
rthumb 25.9903 -84.3233
lclavicle -1.12686e-014 5.76476e-015
lhumerus -50.8747 11.6977 78.7926
lradius 42.4407
lwrist -6.24463
lhand -6.07528 -35.8748
lfingers 7.12502
lthumb 19.76 -6.85921
rfemur 6.38244 20.7178 31.0454
rtibia 8.94416
rfoot -15.4617 -31.5143
rtoes 0.681563
lfemur -7.02347 -25.0344 -23.459
ltibia 25.7511
lfoot -21.2138 18.6366
ltoes -26.4324
398
root 8.36539 15.5934 8.06558 4.41915 -80.4949 -4.52919
lowerback 10.0048 1.00163 2.59794
upperback -4.22828 1.64571 -0.588318
thorax -10.0776 0.593085 -2.39862
lowerneck -7.10657 -6.32945 -8.77538
upperneck 4.11561 -8.17268 8.54126
head 3.09373 -3.91709 3.57321
rclavicle -8.54774e-015 -6.26172e-015
rhumerus -50.1111 12.593 -89.8863
rradius 40.5907
rwrist 24.4062
rhand 0.562652 -55.2036
rfingers 7.12502
rthumb 26.1292 -83.4258
lclavicle -8.54774e-015 -6.26172e-015
lhumerus -50.2588 10.4926 79.9725
lradius 42.4337
lwrist -7.71038
lhand -5.60579 -36.1123
lfingers 7.12502
lthumb 20.2113 -7.14382
rfemur 6.32361 20.6034 31.2518
rtibia 9.05384
rfoot -15.5052 -31.046
rtoes 2.52171
lfemur -7.12214 -24.19 -23.3092
ltibia 25.6836
lfoot -19.1699 20.0372
ltoes -37.0016
399
root 8.36582 15.6149 8.06607 5.21158 -80.748 -5.41131
lowerback 9.98914 0.992333 2.54142
upperback -4.14422 1.63021 -0.527756
thorax -9.9792 0.594951 -2.29682
lowerneck -7.15304 -6.25819 -8.7324
upperneck 4.1432 -8.08699 8.63852
head 3.1048 -3.86983 3.60021
rclavicle -3.61167e-014 -3.08116e-015
rhumerus -49.7557 13.0904 -90.3754
rradius 40.7939
rwrist 23.8611
rhand 0.293657 -54.6405
rfingers 7.12502
rthumb 25.8716 -82.9006
lclavicle -3.61167e-014 -3.08116e-015
lhumerus -49.689 9.54675 80.9529
lradius 42.3861
lwrist -8.9298
lhand -4.92785 -36.274
lfingers 7.12502
lthumb 20.8627 -7.37573
rfemur 6.19471 20.5974 31.2523
rtibia 9.14024
rfoot -15.1085 -30.8028
rtoes 3.40146
lfemur -7.1133 -24.3962 -23.1806
ltibia 25.6892
lfoot -20.1732 19.7907
ltoes -32.8222
400
root 8.37373 15.5983 8.06796 5.76672 -81.0504 -6.05696
lowerback 10.01 1.02039 2.4502
upperback -4.08137 1.65983 -0.48054
thorax -9.92388 0.618943 -2.19953
lowerneck -7.10824 -6.2122 -8.75361
upperneck 4.16112 -8.03704 8.756
head 3.10458 -3.84277 3.64385
rclavicle -5.28022e-015 2.48481e-015
rhumerus -49.4375 13.5292 -90.811
rradius 41.0258
rwrist 23.2191
rhand 0.155212 -54.15
rfingers 7.12502
rthumb 25.739 -82.4293
lclavicle -5.28022e-015 2.48481e-015
lhumerus -49.1856 8.53488 81.8934
lradius 42.3957
lwrist -9.69305
lhand -4.31848 -36.5414
lfingers 7.12502
lthumb 21.4481 -7.70867
rfemur 6.10726 20.6082 31.4685
rtibia 9.59003
rfoot -15.4147 -30.5809
rtoes 4.90704
lfemur -6.84332 -24.2325 -23.146
ltibia 25.5948
lfoot -20.7404 19.6824
ltoes -31.262
401
root 8.37729 15.5893 8.06544 6.07654 -81.3317 -6.48174
lowerback 10.0079 1.05835 2.29513
upperback -4.0002 1.69052 -0.460005
thorax -9.83574 0.647274 -2.09412
lowerneck -7.05836 -6.16722 -8.62918
upperneck 4.19271 -7.99235 8.72086
head 3.09552 -3.82109 3.61753
rclavicle -2.05494e-014 9.93923e-017
rhumerus -48.9168 13.6978 -91.1955
rradius 41.0274
rwrist 22.8979
rhand 0.149225 -54.1438
rfingers 7.12502
rthumb 25.7333 -82.4239
lclavicle -2.05494e-014 9.93923e-017
lhumerus -48.6361 7.21059 82.8813
lradius 42.3863
lwrist -9.67346
lhand -3.89155 -36.7938
lfingers 7.12502
lthumb 21.8581 -8.00836
rfemur 6.4676 20.5955 31.5948
rtibia 9.03718
rfoot -14.3616 -30.6356
rtoes 2.8978
lfemur -6.75452 -24.0343 -23.1343
ltibia 25.7578
lfoot -20.9218 19.7408
ltoes -31.3917
402
root 8.37595 15.5831 8.06045 5.8742 -81.6092 -6.43562
lowerback 9.9515 1.09632 2.13947
upperback -3.88528 1.71423 -0.500223
thorax -9.67727 0.671488 -2.04995
lowerneck -7.04297 -6.11387 -8.60607
upperneck 4.28909 -7.93405 8.77039
head 3.11807 -3.7903 3.63223
rclavicle -2.54693e-015 -2.18663e-015
rhumerus -48.1567 13.5286 -91.4144
rradius 40.7404
rwrist 23.0195
rhand 0.182971 -53.9452
rfingers 7.12502
rthumb 25.7656 -82.2207
lclavicle -2.54693e-015 -2.18663e-015
lhumerus -48.1287 5.72486 83.8273
lradius 42.5489
lwrist -9.20493
lhand -3.54253 -36.6222
lfingers 7.12502
lthumb 22.1932 -7.87625
rfemur 6.3433 20.5627 31.662
rtibia 9.63491
rfoot -14.3966 -30.5381
rtoes 1.88971
lfemur -6.50412 -23.8547 -23.2367
ltibia 25.6699
lfoot -20.2678 20.1095
ltoes -33.7249
403
root 8.3711 15.6287 8.05985 5.64329 -81.8987 -6.32952
lowerback 9.92708 1.14211 2.0549
upperback -3.82271 1.75893 -0.546839
thorax -9.59259 0.698945 -2.0582
lowerneck -7.0458 -6.06484 -8.9534
upperneck 4.52782 -7.8669 9.01423
head 3.20826 -3.75328 3.76373
rclavicle -1.19022e-014 2.78299e-015
rhumerus -47.5327 13.2854 -91.5753
rradius 40.5695
rwrist 23.1335
rhand 0.139904 -53.5639
rfingers 7.12502
rthumb 25.7244 -81.8453
lclavicle -1.19022e-014 2.78299e-015
lhumerus -47.7435 4.27969 84.6934
lradius 42.8108
lwrist -8.76451
lhand -3.30038 -36.2514
lfingers 7.12502
lthumb 22.4257 -7.53329
rfemur 6.55042 20.556 31.631
rtibia 9.49639
rfoot -14.32 -30.2897
rtoes 2.25695
lfemur -5.84612 -26.2567 -23.1997
ltibia 25.7746
lfoot -26.5665 14.7893
ltoes 12.0138
404
root 8.37498 15.5874 8.05513 6.2227 -82.2402 -6.99386
lowerback 9.93372 1.19514 2.09406
upperback -3.79962 1.83405 -0.564196
thorax -9.56578 0.732967 -2.11187
lowerneck -7.08677 -6.02196 -8.91452
upperneck 4.78712 -7.81979 8.93797
head 3.28367 -3.72966 3.73362
rclavicle 3.01283e-014 4.57205e-015
rhumerus -47.1466 13.4441 -91.9767
rradius 40.6897
rwrist 22.8852
rhand 0.00965084 -53.58
rfingers 7.12502
rthumb 25.5996 -81.8794
lclavicle 3.01283e-014 4.57205e-015
lhumerus -47.3761 2.8641 85.4937
lradius 42.9689
lwrist -8.24432
lhand -3.51468 -36.0551
lfingers 7.12502
lthumb 22.2199 -7.31233
rfemur 6.6343 20.6136 31.743
rtibia 9.45995
rfoot -14.1509 -30.1352
rtoes 2.36882
lfemur -6.17867 -23.6666 -23.3276
ltibia 25.7123
lfoot -20.3705 20.196
ltoes -32.2942
405
root 8.37232 15.6049 8.05456 6.53564 -82.6027 -7.33952
lowerback 9.88893 1.23929 1.97079
upperback -3.80883 1.87812 -0.530939
thorax -9.55194 0.763155 -2.01345
lowerneck -7.07383 -5.95113 -9.05087
upperneck 5.05218 -7.7249 8.90585
head 3.35639 -3.68534 3.7498
rclavicle -3.85145e-014 2.18663e-015
rhumerus -46.9902 14.2697 -92.6251
rradius 41.0572
rwrist 22.1624
rhand -0.243253 -54.0219
rfingers 7.12502
rthumb 25.3574 -82.3559
lclavicle -3.85145e-014 2.18663e-015
lhumerus -47.0658 1.57411 86.2501
lradius 43.0576
lwrist -7.52773
lhand -4.02923 -36.0023
lfingers 7.12502
lthumb 21.7259 -7.20154
rfemur 6.54734 20.7124 31.6602
rtibia 9.55949
rfoot -13.9318 -30.0016
rtoes 1.72698
lfemur -5.84511 -24.4928 -23.3322
ltibia 25.6672
lfoot -23.0676 18.5409
ltoes -16.176
